<svg width="111" height="19" viewBox="0 0 111 19" fill="none" xmlns="http://www.w3.org/2000/svg">
<path d="M0.591733 18V0.545454H7.4781C8.79628 0.545454 9.92128 0.78125 10.8531 1.25284C11.7906 1.71875 12.5037 2.38068 12.9923 3.23864C13.4866 4.09091 13.7338 5.09375 13.7338 6.24716C13.7338 7.40625 13.4838 8.40341 12.9838 9.23864C12.4838 10.0682 11.7593 10.7045 10.8105 11.1477C9.8673 11.5909 8.72526 11.8125 7.38435 11.8125H2.77355V8.84659H6.78776C7.4923 8.84659 8.07753 8.75 8.54344 8.55682C9.00935 8.36364 9.35594 8.07386 9.58321 7.6875C9.81617 7.30114 9.93264 6.82102 9.93264 6.24716C9.93264 5.66761 9.81617 5.17898 9.58321 4.78125C9.35594 4.38352 9.00651 4.08239 8.53492 3.87784C8.06901 3.66761 7.48094 3.5625 6.77071 3.5625H4.28207V18H0.591733ZM10.0179 10.0568L14.3559 18H10.2821L6.03776 10.0568H10.0179ZM19.3121 0.545454V18H15.6217V0.545454H19.3121ZM31.097 5.56534C31.0289 4.87784 30.7363 4.34375 30.2192 3.96307C29.7022 3.58239 29.0005 3.39204 28.1141 3.39204C27.5118 3.39204 27.0033 3.47727 26.5885 3.64773C26.1738 3.8125 25.8556 4.04261 25.634 4.33807C25.4181 4.63352 25.3101 4.96875 25.3101 5.34375C25.2988 5.65625 25.3641 5.92898 25.5061 6.16193C25.6539 6.39489 25.8556 6.59659 26.1112 6.76705C26.3669 6.93182 26.6624 7.0767 26.9976 7.2017C27.3328 7.32102 27.6908 7.4233 28.0715 7.50852L29.6397 7.88352C30.401 8.05398 31.0999 8.28125 31.7362 8.56534C32.3726 8.84943 32.9238 9.19886 33.3897 9.61364C33.8556 10.0284 34.2164 10.517 34.472 11.0795C34.7334 11.642 34.8669 12.2869 34.8726 13.0142C34.8669 14.0824 34.5942 15.0085 34.0544 15.7926C33.5203 16.571 32.7476 17.1761 31.7362 17.608C30.7306 18.0341 29.5175 18.2472 28.097 18.2472C26.688 18.2472 25.4607 18.0312 24.4152 17.5994C23.3755 17.1676 22.563 16.5284 21.9777 15.6818C21.3982 14.8295 21.0942 13.7756 21.0658 12.5199H24.6368C24.6766 13.1051 24.8442 13.5937 25.1397 13.9858C25.4408 14.3722 25.8414 14.6648 26.3414 14.8636C26.847 15.0568 27.4181 15.1534 28.0544 15.1534C28.6794 15.1534 29.222 15.0625 29.6823 14.8807C30.1482 14.6989 30.509 14.446 30.7647 14.1222C31.0203 13.7983 31.1482 13.4261 31.1482 13.0057C31.1482 12.6136 31.0317 12.2841 30.7987 12.017C30.5715 11.75 30.2363 11.5227 29.7931 11.3352C29.3556 11.1477 28.8186 10.9773 28.1823 10.8239L26.2817 10.3466C24.8101 9.98864 23.6482 9.42898 22.7959 8.66761C21.9436 7.90625 21.5203 6.88068 21.526 5.59091C21.5203 4.53409 21.8016 3.6108 22.3698 2.82102C22.9436 2.03125 23.7306 1.41477 24.7306 0.971591C25.7306 0.528409 26.8669 0.306818 28.1397 0.306818C29.4351 0.306818 30.5658 0.528409 31.5317 0.971591C32.5033 1.41477 33.259 2.03125 33.7987 2.82102C34.3385 3.6108 34.6169 4.52557 34.634 5.56534H31.097ZM36.6349 18V0.545454H48.3962V3.58807H40.3252V7.74716H47.7911V10.7898H40.3252V14.9574H48.4303V18H36.6349Z" fill="#1C1C1C"/>
<path d="M51.0107 18V0.545454H57.4028C58.6414 0.545454 59.667 0.75 60.4795 1.15909C61.292 1.5625 61.8999 2.1108 62.3034 2.80398C62.7068 3.49148 62.9085 4.26705 62.9085 5.13068C62.9085 5.85795 62.7749 6.47159 62.5079 6.97159C62.2409 7.46591 61.8829 7.86364 61.434 8.16477C60.9909 8.46023 60.5022 8.67614 59.9681 8.8125V8.98295C60.5477 9.01136 61.113 9.19886 61.6641 9.54545C62.221 9.88636 62.6812 10.3722 63.0448 11.0028C63.4085 11.6335 63.5903 12.4006 63.5903 13.304C63.5903 14.196 63.3801 14.9972 62.9596 15.7074C62.5448 16.4119 61.9028 16.9716 61.0335 17.3864C60.1641 17.7955 59.0534 18 57.7011 18H51.0107ZM53.6443 15.7415H57.4454C58.7068 15.7415 59.6102 15.4972 60.1556 15.0085C60.7011 14.5199 60.9738 13.9091 60.9738 13.1761C60.9738 12.625 60.8346 12.1193 60.5562 11.6591C60.2778 11.1989 59.8801 10.8324 59.363 10.5597C58.8516 10.2869 58.2437 10.1506 57.5391 10.1506H53.6443V15.7415ZM53.6443 8.09659H57.1727C57.7636 8.09659 58.2948 7.98295 58.7664 7.75568C59.2437 7.52841 59.6215 7.21023 59.8999 6.80114C60.184 6.38636 60.3261 5.89773 60.3261 5.33523C60.3261 4.61364 60.0732 4.00852 59.5676 3.51989C59.0619 3.03125 58.2863 2.78693 57.2409 2.78693H53.6443V8.09659ZM65.9939 18V0.545454H68.6274V15.733H76.5365V18H65.9939ZM93.303 9.27273C93.303 11.1364 92.9621 12.7386 92.2803 14.0795C91.5984 15.4148 90.6638 16.4432 89.4763 17.1648C88.2945 17.8807 86.9507 18.2386 85.445 18.2386C83.9337 18.2386 82.5842 17.8807 81.3967 17.1648C80.2149 16.4432 79.2831 15.4119 78.6013 14.071C77.9195 12.7301 77.5785 11.1307 77.5785 9.27273C77.5785 7.40909 77.9195 5.80966 78.6013 4.47443C79.2831 3.13352 80.2149 2.10511 81.3967 1.3892C82.5842 0.667613 83.9337 0.306818 85.445 0.306818C86.9507 0.306818 88.2945 0.667613 89.4763 1.3892C90.6638 2.10511 91.5984 3.13352 92.2803 4.47443C92.9621 5.80966 93.303 7.40909 93.303 9.27273ZM90.695 9.27273C90.695 7.85227 90.4649 6.65625 90.0047 5.68466C89.5501 4.70739 88.9251 3.96875 88.1297 3.46875C87.3399 2.96307 86.445 2.71023 85.445 2.71023C84.4393 2.71023 83.5416 2.96307 82.7518 3.46875C81.9621 3.96875 81.3371 4.70739 80.8768 5.68466C80.4223 6.65625 80.195 7.85227 80.195 9.27273C80.195 10.6932 80.4223 11.892 80.8768 12.8693C81.3371 13.8409 81.9621 14.5795 82.7518 15.0852C83.5416 15.5852 84.4393 15.8352 85.445 15.8352C86.445 15.8352 87.3399 15.5852 88.1297 15.0852C88.9251 14.5795 89.5501 13.8409 90.0047 12.8693C90.4649 11.892 90.695 10.6932 90.695 9.27273ZM107.679 6.05966C107.514 5.54261 107.292 5.07955 107.014 4.67045C106.741 4.25568 106.415 3.90341 106.034 3.61364C105.653 3.31818 105.219 3.09375 104.73 2.94034C104.247 2.78693 103.716 2.71023 103.136 2.71023C102.153 2.71023 101.267 2.96307 100.477 3.46875C99.6874 3.97443 99.0624 4.71591 98.6022 5.69318C98.1476 6.66477 97.9203 7.85511 97.9203 9.2642C97.9203 10.679 98.1505 11.875 98.6107 12.8523C99.0709 13.8295 99.7016 14.571 100.503 15.0767C101.304 15.5824 102.216 15.8352 103.239 15.8352C104.187 15.8352 105.014 15.642 105.719 15.2557C106.429 14.8693 106.977 14.3239 107.364 13.6193C107.756 12.9091 107.952 12.0739 107.952 11.1136L108.633 11.2415H103.639V9.06818H110.5V11.054C110.5 12.5199 110.187 13.7926 109.562 14.8722C108.943 15.946 108.085 16.7756 106.989 17.3608C105.898 17.946 104.648 18.2386 103.239 18.2386C101.659 18.2386 100.273 17.875 99.0794 17.1477C97.8919 16.4205 96.9658 15.3892 96.301 14.054C95.6362 12.7131 95.3039 11.1222 95.3039 9.28125C95.3039 7.8892 95.497 6.6392 95.8834 5.53125C96.2698 4.4233 96.8124 3.48295 97.5112 2.71023C98.2158 1.93182 99.0425 1.33807 99.9914 0.928977C100.946 0.514204 101.989 0.306818 103.119 0.306818C104.062 0.306818 104.94 0.446022 105.753 0.724431C106.571 1.00284 107.298 1.39773 107.935 1.90909C108.577 2.42045 109.108 3.02841 109.528 3.73295C109.949 4.43182 110.233 5.20739 110.381 6.05966H107.679Z" fill="url(#paint0_linear_2_5)"/>
<defs>
<linearGradient id="paint0_linear_2_5" x1="114.112" y1="-5" x2="55.1248" y2="23.2156" gradientUnits="userSpaceOnUse">
<stop stop-color="#7851E9"/>
<stop offset="0.52604" stop-color="#423ECD"/>
<stop offset="1" stop-color="#3652E1"/>
</linearGradient>
</defs>
</svg>
