<svg width="1440" height="666" viewBox="0 0 1440 666" fill="none" xmlns="http://www.w3.org/2000/svg">
<rect x="110.214" y="41.5642" width="64" height="200.101" rx="32" transform="rotate(46.5784 110.214 41.5642)" fill="url(#paint0_linear_64_900)"/>
<rect x="187.75" y="359.832" width="145.309" height="27" rx="13.5" transform="rotate(-118.701 187.75 359.832)" fill="url(#paint1_linear_64_900)"/>
<rect x="1042" y="42.1471" width="140.597" height="57.5494" rx="28.7747" transform="rotate(-19.5929 1042 42.1471)" fill="url(#paint2_linear_64_900)"/>
<rect x="645.523" y="11" width="140.597" height="28.0591" rx="14.0295" transform="rotate(31.1718 645.523 11)" fill="url(#paint3_linear_64_900)"/>
<rect x="197.477" y="478.183" width="90" height="156" rx="45" transform="rotate(34.1062 197.477 478.183)" fill="url(#paint4_linear_64_900)"/>
<rect x="1283.39" y="529.049" width="244.956" height="91.0465" rx="45.5233" transform="rotate(13.6703 1283.39 529.049)" fill="url(#paint5_linear_64_900)"/>
<defs>
<linearGradient id="paint0_linear_64_900" x1="122.89" y1="-46.48" x2="290.131" y2="-18.0406" gradientUnits="userSpaceOnUse">
<stop stop-color="#3652E1"/>
<stop offset="0.505205" stop-color="#8057F5"/>
<stop offset="0.989515" stop-color="#7851E8"/>
<stop offset="0.989615" stop-color="#8057F5"/>
</linearGradient>
<linearGradient id="paint1_linear_64_900" x1="216.531" y1="347.952" x2="259.055" y2="469.63" gradientUnits="userSpaceOnUse">
<stop stop-color="#3652E1"/>
<stop offset="0.505205" stop-color="#8057F5"/>
<stop offset="0.989515" stop-color="#7851E8"/>
<stop offset="0.989615" stop-color="#8057F5"/>
</linearGradient>
<linearGradient id="paint2_linear_64_900" x1="1069.85" y1="16.8254" x2="1210.52" y2="199.553" gradientUnits="userSpaceOnUse">
<stop stop-color="#3652E1"/>
<stop offset="0.505205" stop-color="#8057F5"/>
<stop offset="0.989515" stop-color="#7851E8"/>
<stop offset="0.989615" stop-color="#8057F5"/>
</linearGradient>
<linearGradient id="paint3_linear_64_900" x1="673.371" y1="-1.34599" x2="720.056" y2="123.027" gradientUnits="userSpaceOnUse">
<stop stop-color="#3652E1"/>
<stop offset="0.505205" stop-color="#8057F5"/>
<stop offset="0.989515" stop-color="#7851E8"/>
<stop offset="0.989615" stop-color="#8057F5"/>
</linearGradient>
<linearGradient id="paint4_linear_64_900" x1="215.303" y1="409.543" x2="436.477" y2="477.385" gradientUnits="userSpaceOnUse">
<stop stop-color="#3652E1"/>
<stop offset="0.505205" stop-color="#8057F5"/>
<stop offset="0.989515" stop-color="#7851E8"/>
<stop offset="0.989615" stop-color="#8057F5"/>
</linearGradient>
<linearGradient id="paint5_linear_64_900" x1="1331.91" y1="488.989" x2="1548.12" y2="798.266" gradientUnits="userSpaceOnUse">
<stop stop-color="#3652E1"/>
<stop offset="0.505205" stop-color="#8057F5"/>
<stop offset="0.989515" stop-color="#7851E8"/>
<stop offset="0.989615" stop-color="#8057F5"/>
</linearGradient>
</defs>
</svg>
